0
SECTION
2
ENTITIES
0
LINE
8
0
10
22.211035
20
0.257082
11
22.303353
21
0.894825
0
LINE
8
0
10
22.303353
20
0.894825
11
22.459642
21
1.426964
0
LINE
8
0
10
22.459642
20
1.426964
11
22.634679
21
1.849592
0
LINE
8
0
10
22.634679
20
1.849592
11
22.804631
21
2.188201
0
LINE
8
0
10
22.804631
20
2.188201
11
22.963294
21
2.472311
0
LINE
8
0
10
22.963294
20
2.472311
11
23.112318
21
2.725822
0
LINE
8
0
10
23.112318
20
2.725822
11
23.255155
21
2.966106
0
LINE
8
0
10
23.255155
20
2.966106
11
23.394569
21
3.20546
0
LINE
8
0
10
23.394569
20
3.20546
11
23.53194
21
3.452598
0
LINE
8
0
10
23.53194
20
3.452598
11
23.667278
21
3.713698
0
LINE
8
0
10
23.667278
20
3.713698
11
23.799452
21
3.993074
0
LINE
8
0
10
23.799452
20
3.993074
11
23.926468
21
4.293592
0
LINE
8
0
10
23.926468
20
4.293592
11
24.045724
21
4.616929
0
LINE
8
0
10
24.045724
20
4.616929
11
24.154236
21
4.963753
0
LINE
8
0
10
24.154236
20
4.963753
11
24.24883
21
5.33384
0
LINE
8
0
10
24.24883
20
5.33384
11
24.326308
21
5.726181
0
LINE
8
0
10
24.326308
20
5.726181
11
24.383589
21
6.139066
0
LINE
8
0
10
24.383589
20
6.139066
11
24.417828
21
6.570172
0
LINE
8
0
10
24.417828
20
6.570172
11
24.42652
21
7.016646
0
LINE
8
0
10
24.42652
20
7.016646
11
24.407582
21
7.475199
0
LINE
8
0
10
24.407582
20
7.475199
11
24.359421
21
7.942192
0
LINE
8
0
10
24.359421
20
7.942192
11
24.280983
21
8.413736
0
LINE
8
0
10
24.280983
20
8.413736
11
24.171786
21
8.885788
0
LINE
8
0
10
24.171786
20
8.885788
11
24.031936
21
9.35425
0
LINE
8
0
10
24.031936
20
9.35425
11
23.862131
21
9.815066
0
LINE
8
0
10
23.862131
20
9.815066
11
23.66364
21
10.264317
0
LINE
8
0
10
23.66364
20
10.264317
11
23.438277
21
10.698311
0
LINE
8
0
10
23.438277
20
10.698311
11
23.188355
21
11.113669
0
LINE
8
0
10
23.188355
20
11.113669
11
22.916622
21
11.507403
0
LINE
8
0
10
22.916622
20
11.507403
11
22.626193
21
11.876976
0
LINE
8
0
10
22.626193
20
11.876976
11
22.320463
21
12.220368
0
LINE
8
0
10
22.320463
20
12.220368
11
22.003007
21
12.536112
0
LINE
8
0
10
22.003007
20
12.536112
11
21.677475
21
12.823325
0
LINE
8
0
10
21.677475
20
12.823325
11
21.347467
21
13.081729
0
LINE
8
0
10
21.347467
20
13.081729
11
21.016404
21
13.311646
0
LINE
8
0
10
21.016404
20
13.311646
11
20.687375
21
13.513991
0
LINE
8
0
10
20.687375
20
13.513991
11
20.362971
21
13.690245
0
LINE
8
0
10
20.362971
20
13.690245
11
20.045087
21
13.842422
0
LINE
8
0
10
20.045087
20
13.842422
11
19.734683
21
13.973035
0
LINE
8
0
10
19.734683
20
13.973035
11
19.431486
21
14.085073
0
LINE
8
0
10
19.431486
20
14.085073
11
19.1336
21
14.182022
0
LINE
8
0
10
19.1336
20
14.182022
11
18.836985
21
14.267997
0
LINE
8
0
10
18.836985
20
14.267997
11
18.53479
21
14.348086
0
LINE
8
0
10
18.53479
20
14.348086
11
18.216585
21
14.429178
0
LINE
8
0
10
18.216585
20
14.429178
11
17.867862
21
14.521633
0
LINE
8
0
10
17.867862
20
14.521633
11
17.471066
21
14.642246
0
LINE
8
0
10
17.471066
20
14.642246
11
17.011352
21
14.81782
0
LINE
8
0
10
17.011352
20
14.81782
11
16.491601
21
15.084094
0
LINE
8
0
10
16.491601
20
15.084094
11
15.95261
21
15.467691
0
LINE
8
0
10
15.95261
20
15.467691
11
15.468819
21
15.951231
0
LINE
8
0
10
15.468819
20
15.951231
11
15.098709
21
16.467197
0
LINE
8
0
10
15.098709
20
16.467197
11
14.846275
21
16.946956
0
LINE
8
0
10
14.846275
20
16.946956
11
14.679942
21
17.361122
0
LINE
8
0
10
14.679942
20
17.361122
11
14.565659
21
17.713893
0
LINE
8
0
10
14.565659
20
17.713893
11
14.479511
21
18.022482
0
LINE
8
0
10
14.479511
20
18.022482
11
14.406703
21
18.304682
0
LINE
8
0
10
14.406703
20
18.304682
11
14.337904
21
18.574701
0
LINE
8
0
10
14.337904
20
18.574701
11
14.266629
21
18.842712
0
LINE
8
0
10
14.266629
20
18.842712
11
14.187825
21
19.115465
0
LINE
8
0
10
14.187825
20
19.115465
11
14.097204
21
19.397039
0
LINE
8
0
10
14.097204
20
19.397039
11
13.990972
21
19.689457
0
LINE
8
0
10
13.990972
20
19.689457
11
13.865741
21
19.993158
0
LINE
8
0
10
13.865741
20
19.993158
11
13.71854
21
20.307353
0
LINE
8
0
10
13.71854
20
20.307353
11
13.546845
21
20.630294
0
LINE
8
0
10
13.546845
20
20.630294
11
13.348635
21
20.959501
0
LINE
8
0
10
13.348635
20
20.959501
11
13.122433
21
21.291936
0
LINE
8
0
10
13.122433
20
21.291936
11
12.867344
21
21.624171
0
LINE
8
0
10
12.867344
20
21.624171
11
12.583074
21
21.952528
0
LINE
8
0
10
12.583074
20
21.952528
11
12.269946
21
22.273211
0
LINE
8
0
10
12.269946
20
22.273211
11
11.92889
21
22.582428
0
LINE
8
0
10
11.92889
20
22.582428
11
11.561422
21
22.876499
0
LINE
8
0
10
11.561422
20
22.876499
11
11.169615
21
23.151961
0
LINE
8
0
10
11.169615
20
23.151961
11
10.756046
21
23.405658
0
LINE
8
0
10
10.756046
20
23.405658
11
10.323742
21
23.634818
0
LINE
8
0
10
10.323742
20
23.634818
11
9.876106
21
23.837128
0
LINE
8
0
10
9.876106
20
23.837128
11
9.41684
21
24.010779
0
LINE
8
0
10
9.41684
20
24.010779
11
8.949859
21
24.154515
0
LINE
8
0
10
8.949859
20
24.154515
11
8.479197
21
24.267654
0
LINE
8
0
10
8.479197
20
24.267654
11
8.008908
21
24.350099
0
LINE
8
0
10
8.008908
20
24.350099
11
7.542972
21
24.402332
0
LINE
8
0
10
7.542972
20
24.402332
11
7.085192
21
24.425391
0
LINE
8
0
10
7.085192
20
24.425391
11
6.639094
21
24.420829
0
LINE
8
0
10
6.639094
20
24.420829
11
6.207829
21
24.390656
0
LINE
8
0
10
6.207829
20
24.390656
11
5.794076
21
24.337263
0
LINE
8
0
10
5.794076
20
24.337263
11
5.399951
21
24.263328
0
LINE
8
0
10
5.399951
20
24.263328
11
5.026902
21
24.171695
0
LINE
8
0
10
5.026902
20
24.171695
11
4.675611
21
24.065238
0
LINE
8
0
10
4.675611
20
24.065238
11
4.345877
21
23.946695
0
LINE
8
0
10
4.345877
20
23.946695
11
4.036464
21
23.818467
0
LINE
8
0
10
4.036464
20
23.818467
11
3.744895
21
23.682391
0
LINE
8
0
10
3.744895
20
23.682391
11
3.467148
21
23.539472
0
LINE
8
0
10
3.467148
20
23.539472
11
3.19717
21
23.389609
0
LINE
8
0
10
3.19717
20
23.389609
11
2.926113
21
23.231389
0
LINE
8
0
10
2.926113
20
23.231389
11
2.641156
21
23.062182
0
LINE
8
0
10
2.641156
20
23.062182
11
2.32393
21
22.87914
0
LINE
8
0
10
2.32393
20
22.87914
11
1.9493
21
22.682395
0
LINE
8
0
10
1.9493
20
22.682395
11
1.487668
21
22.48221
0
LINE
8
0
10
1.487668
20
22.48221
11
0.9182
21
22.308774
0
LINE
8
0
10
0.9182
20
22.308774
11
0.257256
21
22.211066
0
LINE
8
0
10
0.257256
20
22.211066
11
-0.424193
21
22.225297
0
LINE
8
0
10
-0.424193
20
22.225297
11
-1.038734
21
22.33847
0
LINE
8
0
10
-1.038734
20
22.33847
11
-1.542141
21
22.50297
0
LINE
8
0
10
-1.542141
20
22.50297
11
-1.940914
21
22.678105
0
LINE
8
0
10
-1.940914
20
22.678105
11
-2.263284
21
22.845363
0
LINE
8
0
10
-2.263284
20
22.845363
11
-2.537776
21
23.001321
0
LINE
8
0
10
-2.537776
20
23.001321
11
-2.786579
21
23.148478
0
LINE
8
0
10
-2.786579
20
23.148478
11
-3.02564
21
23.29025
0
LINE
8
0
10
-3.02564
20
23.29025
11
-3.266237
21
23.429081
0
LINE
8
0
10
-3.266237
20
23.429081
11
-3.516368
21
23.565992
0
LINE
8
0
10
-3.516368
20
23.565992
11
-3.781694
21
23.700684
0
LINE
8
0
10
-3.781694
20
23.700684
11
-4.066137
21
23.831783
0
LINE
8
0
10
-4.066137
20
23.831783
11
-4.372244
21
23.957121
0
LINE
8
0
10
-4.372244
20
23.957121
11
-4.701428
21
24.073981
0
LINE
8
0
10
-4.701428
20
24.073981
11
-5.054121
21
24.179315
0
LINE
8
0
10
-5.054121
20
24.179315
11
-5.429895
21
24.269927
0
LINE
8
0
10
-5.429895
20
24.269927
11
-5.827557
21
24.342638
0
LINE
8
0
10
-5.827557
20
24.342638
11
-6.245238
21
24.394413
0
LINE
8
0
10
-6.245238
20
24.394413
11
-6.680471
21
24.422485
0
LINE
8
0
10
-6.680471
20
24.422485
11
-7.130289
21
24.424447
0
LINE
8
0
10
-7.130289
20
24.424447
11
-7.591304
21
24.398332
0
LINE
8
0
10
-7.591304
20
24.398332
11
-8.059807
21
24.342679
0
LINE
8
0
10
-8.059807
20
24.342679
11
-8.531861
21
24.256573
0
LINE
8
0
10
-8.531861
20
24.256573
11
-9.0034
21
24.13968
0
LINE
8
0
10
-9.0034
20
24.13968
11
-9.470327
21
23.992253
0
LINE
8
0
10
-9.470327
20
23.992253
11
-9.928612
21
23.815135
0
LINE
8
0
10
-9.928612
20
23.815135
11
-10.374384
21
23.609736
0
LINE
8
0
10
-10.374384
20
23.609736
11
-10.804022
21
23.377999
0
LINE
8
0
10
-10.804022
20
23.377999
11
-11.214237
21
23.12235
0
LINE
8
0
10
-11.214237
20
23.12235
11
-11.602149
21
22.845639
0
LINE
8
0
10
-11.602149
20
22.845639
11
-11.965346
21
22.551058
0
LINE
8
0
10
-11.965346
20
22.551058
11
-12.301941
21
22.242056
0
LINE
8
0
10
-12.301941
20
22.242056
11
-12.610611
21
21.922239
0
LINE
8
0
10
-12.610611
20
21.922239
11
-12.890625
21
21.595254
0
LINE
8
0
10
-12.890625
20
21.595254
11
-13.141853
21
21.264673
0
LINE
8
0
10
-13.141853
20
21.264673
11
-13.364768
21
20.933845
0
LINE
8
0
10
-13.364768
20
20.933845
11
-13.56043
21
20.605753
0
LINE
8
0
10
-13.56043
20
20.605753
11
-13.730456
21
20.282834
0
LINE
8
0
10
-13.730456
20
20.282834
11
-13.876988
21
19.966772
0
LINE
8
0
10
-13.876988
20
19.966772
11
-14.002659
21
19.658251
0
LINE
8
0
10
-14.002659
20
19.658251
11
-14.110576
21
19.356633
0
LINE
8
0
10
-14.110576
20
19.356633
11
-14.204367
21
19.059541
0
LINE
8
0
10
-14.204367
20
19.059541
11
-14.288342
21
18.762299
0
LINE
8
0
10
-14.288342
20
18.762299
11
-14.367938
21
18.457236
0
LINE
8
0
10
-14.367938
20
18.457236
11
-14.450709
21
18.132919
0
LINE
8
0
10
-14.450709
20
18.132919
11
-14.548294
21
17.773872
0
LINE
8
0
10
-14.548294
20
17.773872
11
-14.679689
21
17.362388
0
LINE
8
0
10
-14.679689
20
17.362388
11
-14.874446
21
16.886224
0
LINE
8
0
10
-14.874446
20
16.886224
11
-15.168661
21
16.356078
0
LINE
8
0
10
-15.168661
20
16.356078
11
-15.58122
21
15.823441
0
LINE
8
0
10
-15.58122
20
15.823441
11
-16.080326
21
15.364514
0
LINE
8
0
10
-16.080326
20
15.364514
11
-16.592439
21
15.025501
0
LINE
8
0
10
-16.592439
20
15.025501
11
-17.056887
21
14.798082
0
LINE
8
0
10
-17.056887
20
14.798082
11
-17.454486
21
14.647615
0
LINE
8
0
10
-17.454486
20
14.647615
11
-17.794444
21
14.542188
0
LINE
8
0
10
-17.794444
20
14.542188
11
-18.094879
21
14.460492
0
LINE
8
0
10
-18.094879
20
14.460492
11
-18.372865
21
14.389415
0
LINE
8
0
10
-18.372865
20
14.389415
11
-18.641576
21
14.320532
0
LINE
8
0
10
-18.641576
20
14.320532
11
-18.910256
21
14.247811
0
LINE
8
0
10
-18.910256
20
14.247811
11
-19.184922
21
14.166433
0
LINE
8
0
10
-19.184922
20
14.166433
11
-19.469086
21
14.072249
0
LINE
8
0
10
-19.469086
20
14.072249
11
-19.764337
21
13.961569
0
LINE
8
0
10
-19.764337
20
13.961569
11
-20.070777
21
13.831107
0
LINE
8
0
10
-20.070777
20
13.831107
11
-20.387354
21
13.678
0
LINE
8
0
10
-20.387354
20
13.678
11
-20.712119
21
13.499846
0
LINE
8
0
10
-20.712119
20
13.499846
11
-21.042435
21
13.294754
0
LINE
8
0
10
-21.042435
20
13.294754
11
-21.375154
21
13.061391
0
LINE
8
0
10
-21.375154
20
13.061391
11
-21.706771
21
12.79901
0
LINE
8
0
10
-21.706771
20
12.79901
11
-22.033567
21
12.507472
0
LINE
8
0
10
-22.033567
20
12.507472
11
-22.351737
21
12.187251
0
LINE
8
0
10
-22.351737
20
12.187251
11
-22.657505
21
11.839427
0
LINE
8
0
10
-22.657505
20
11.839427
11
-22.947238
21
11.46566
0
LINE
8
0
10
-22.947238
20
11.46566
11
-23.217541
21
11.068152
0
LINE
8
0
10
-23.217541
20
11.068152
11
-23.465347
21
10.649599
0
LINE
8
0
10
-23.465347
20
10.649599
11
-23.687993
21
10.21313
0
LINE
8
0
10
-23.687993
20
10.21313
11
-23.883286
21
9.762229
0
LINE
8
0
10
-23.883286
20
9.762229
11
-24.049554
21
9.300662
0
LINE
8
0
10
-24.049554
20
9.300662
11
-24.185682
21
8.83238
0
LINE
8
0
10
-24.185682
20
8.83238
11
-24.291134
21
8.361432
0
LINE
8
0
10
-24.291134
20
8.361432
11
-24.365959
21
7.891864
0
LINE
8
0
10
-24.365959
20
7.891864
11
-24.41078
21
7.42762
0
LINE
8
0
10
-24.41078
20
7.42762
11
-24.426769
21
6.972442
0
LINE
8
0
10
-24.426769
20
6.972442
11
-24.415599
21
6.529774
0
LINE
8
0
10
-24.415599
20
6.529774
11
-24.379384
21
6.102656
0
LINE
8
0
10
-24.379384
20
6.102656
11
-24.320596
21
5.693636
0
LINE
8
0
10
-24.320596
20
5.693636
11
-24.241966
21
5.304672
0
LINE
8
0
10
-24.241966
20
5.304672
11
-24.14636
21
4.937031
0
LINE
8
0
10
-24.14636
20
4.937031
11
-24.036634
21
4.591186
0
LINE
8
0
10
-24.036634
20
4.591186
11
-23.915463
21
4.266693
0
LINE
8
0
10
-23.915463
20
4.266693
11
-23.785129
21
3.962026
0
LINE
8
0
10
-23.785129
20
3.962026
11
-23.647286
21
3.674359
0
LINE
8
0
10
-23.647286
20
3.674359
11
-23.502689
21
3.399215
0
LINE
8
0
10
-23.502689
20
3.399215
11
-23.350923
21
3.129929
0
LINE
8
0
10
-23.350923
20
3.129929
11
-23.190239
21
2.856787
0
LINE
8
0
10
-23.190239
20
2.856787
11
-23.017803
21
2.565738
0
LINE
8
0
10
-23.017803
20
2.565738
11
-22.831085
21
2.236781
0
LINE
8
0
10
-22.831085
20
2.236781
11
-22.631901
21
1.843183
0
LINE
8
0
10
-22.631901
20
1.843183
11
-22.434633
21
1.355666
0
LINE
8
0
10
-22.434633
20
1.355666
11
-22.275241
21
0.759645
0
LINE
8
0
10
-22.275241
20
0.759645
11
-22.203681
21
0.08514
0
LINE
8
0
10
-22.203681
20
0.08514
11
-22.245932
21
-0.586861
0
LINE
8
0
10
-22.245932
20
-0.586861
11
-22.376735
21
-1.175425
0
LINE
8
0
10
-22.376735
20
-1.175425
11
-22.54684
21
-1.650683
0
LINE
8
0
10
-22.54684
20
-1.650683
11
-22.720966
21
-2.02747
0
LINE
8
0
10
-22.720966
20
-2.02747
11
-22.885362
21
-2.33541
0
LINE
8
0
10
-22.885362
20
-2.33541
11
-23.038795
21
-2.601667
0
LINE
8
0
10
-23.038795
20
-2.601667
11
-23.184307
21
-2.846749
0
LINE
8
0
10
-23.184307
20
-2.846749
11
-23.325169
21
-3.085285
0
LINE
8
0
10
-23.325169
20
-3.085285
11
-23.463479
21
-3.32762
0
LINE
8
0
10
-23.463479
20
-3.32762
11
-23.599911
21
-3.581095
0
LINE
8
0
10
-23.599911
20
-3.581095
11
-23.733868
21
-3.850892
0
LINE
8
0
10
-23.733868
20
-3.850892
11
-23.863756
21
-4.14056
0
LINE
8
0
10
-23.863756
20
-4.14056
11
-23.987246
21
-4.452344
0
LINE
8
0
10
-23.987246
20
-4.452344
11
-24.101519
21
-4.7874
0
LINE
8
0
10
-24.101519
20
-4.7874
11
-24.203474
21
-5.145934
0
LINE
8
0
10
-24.203474
20
-5.145934
11
-24.289905
21
-5.527321
0
LINE
8
0
10
-24.289905
20
-5.527321
11
-24.357658
21
-5.930188
0
LINE
8
0
10
-24.357658
20
-5.930188
11
-24.403754
21
-6.352508
0
LINE
8
0
10
-24.403754
20
-6.352508
11
-24.425508
21
-6.791684
0
LINE
8
0
10
-24.425508
20
-6.791684
11
-24.420616
21
-7.244633
0
LINE
8
0
10
-24.420616
20
-7.244633
11
-24.387233
21
-7.707878
0
LINE
8
0
10
-24.387233
20
-7.707878
11
-24.324031
21
-8.177645
0
LINE
8
0
10
-24.324031
20
-8.177645
11
-24.230237
21
-8.649954
0
LINE
8
0
10
-24.230237
20
-8.649954
11
-24.105663
21
-9.120724
0
LINE
8
0
10
-24.105663
20
-9.120724
11
-23.950712
21
-9.585863
0
LINE
8
0
10
-23.950712
20
-9.585863
11
-23.76637
21
-10.041374
0
LINE
8
0
10
-23.76637
20
-10.041374
11
-23.554184
21
-10.48344
0
LINE
8
0
10
-23.554184
20
-10.48344
11
-23.316224
21
-10.908516
0
LINE
8
0
10
-23.316224
20
-10.908516
11
-23.055028
21
-11.313409
0
LINE
8
0
10
-23.055028
20
-11.313409
11
-22.773538
21
-11.695348
0
LINE
8
0
10
-22.773538
20
-11.695348
11
-22.47502
21
-12.05205
0
LINE
8
0
10
-22.47502
20
-12.05205
11
-22.162973
21
-12.381765
0
LINE
8
0
10
-22.162973
20
-12.381765
11
-21.841023
21
-12.683317
0
LINE
8
0
10
-21.841023
20
-12.683317
11
-21.512811
21
-12.956122
0
LINE
8
0
10
-21.512811
20
-12.956122
11
-21.181865
21
-13.200205
0
LINE
8
0
10
-21.181865
20
-13.200205
11
-20.85146
21
-13.416185
0
LINE
8
0
10
-20.85146
20
-13.416185
11
-20.524458
21
-13.605265
0
LINE
8
0
10
-20.524458
20
-13.605265
11
-20.203129
21
-13.769197
0
LINE
8
0
10
-20.203129
20
-13.769197
11
-19.888934
21
-13.910248
0
LINE
8
0
10
-19.888934
20
-13.910248
11
-19.582259
21
-14.03117
0
LINE
8
0
10
-19.582259
20
-14.03117
11
-19.282074
21
-14.135194
0
LINE
8
0
10
-19.282074
20
-14.135194
11
-18.985487
21
-14.226093
0
LINE
8
0
10
-18.985487
20
-14.226093
11
-18.687144
21
-14.308403
0
LINE
8
0
10
-18.687144
20
-14.308403
11
-18.3785
21
-14.387969
0
LINE
8
0
10
-18.3785
20
-14.387969
11
-18.047097
21
-14.47313
0
LINE
8
0
10
-18.047097
20
-14.47313
11
-17.676585
21
-14.577013
0
LINE
8
0
10
-17.676585
20
-14.577013
11
-17.24956
21
-14.721045
0
LINE
8
0
10
-17.24956
20
-14.721045
11
-16.757499
21
-14.937358
0
LINE
8
0
10
-16.757499
20
-14.937358
11
-16.22024
21
-15.260904
0
LINE
8
0
10
-16.22024
20
-15.260904
11
-15.699053
21
-15.700406
0
LINE
8
0
10
-15.699053
20
-15.700406
11
-15.268016
21
-16.210143
0
LINE
8
0
10
-15.268016
20
-16.210143
11
-14.95939
21
-16.714467
0
LINE
8
0
10
-14.95939
20
-16.714467
11
-14.754668
21
-17.162502
0
LINE
8
0
10
-14.754668
20
-17.162502
11
-14.618045
21
-17.544212
0
LINE
8
0
10
-14.618045
20
-17.544212
11
-14.520161
21
-17.872535
0
LINE
8
0
10
-14.520161
20
-17.872535
11
-14.442114
21
-18.165894
0
LINE
8
0
10
-14.442114
20
-18.165894
11
-14.372253
21
-18.440489
0
LINE
8
0
10
-14.372253
20
-18.440489
11
-14.302915
21
-18.708465
0
LINE
8
0
10
-14.302915
20
-18.708465
11
-14.228449
21
-18.978186
0
LINE
8
0
10
-14.228449
20
-18.978186
11
-14.144239
21
-19.254981
0
LINE
8
0
10
-14.144239
20
-19.254981
11
-14.046261
21
-19.541833
0
LINE
8
0
10
-14.046261
20
-19.541833
11
-13.930927
21
-19.839921
0
LINE
8
0
10
-13.930927
20
-19.839921
11
-13.795056
21
-20.149033
0
LINE
8
0
10
-13.795056
20
-20.149033
11
-13.635893
21
-20.46787
0
LINE
8
0
10
-13.635893
20
-20.46787
11
-13.45116
21
-20.794293
0
LINE
8
0
10
-13.45116
20
-20.794293
11
-13.239103
21
-21.125522
0
LINE
8
0
10
-13.239103
20
-21.125522
11
-12.998532
21
-21.458304
0
LINE
8
0
10
-12.998532
20
-21.458304
11
-12.728851
21
-21.78907
0
LINE
8
0
10
-12.728851
20
-21.78907
11
-12.430074
21
-22.114067
0
LINE
8
0
10
-12.430074
20
-22.114067
11
-12.102828
21
-22.429487
0
LINE
8
0
10
-12.102828
20
-22.429487
11
-11.748341
21
-22.731579
0
LINE
8
0
10
-11.748341
20
-22.731579
11
-11.368411
21
-23.016762
0
LINE
8
0
10
-11.368411
20
-23.016762
11
-10.965371
21
-23.281713
0
LINE
8
0
10
-10.965371
20
-23.281713
11
-10.542031
21
-23.523461
0
LINE
8
0
10
-10.542031
20
-23.523461
11
-10.101615
21
-23.739455
0
LINE
8
0
10
-10.101615
20
-23.739455
11
-9.647686
21
-23.927627
0
LINE
8
0
10
-9.647686
20
-23.927627
11
-9.184064
21
-24.086443
0
LINE
8
0
10
-9.184064
20
-24.086443
11
-8.714734
21
-24.214929
0
LINE
8
0
10
-8.714734
20
-24.214929
11
-8.243754
21
-24.312697
0
LINE
8
0
10
-8.243754
20
-24.312697
11
-7.775153
21
-24.37994
0
LINE
8
0
10
-7.775153
20
-24.37994
11
-7.312835
21
-24.417423
0
LINE
8
0
10
-7.312835
20
-24.417423
11
-6.860476
21
-24.426447
0
LINE
8
0
10
-6.860476
20
-24.426447
11
-6.421428
21
-24.408802
0
LINE
8
0
10
-6.421428
20
-24.408802
11
-5.998617
21
-24.3667
0
LINE
8
0
10
-5.998617
20
-24.3667
11
-5.594453
21
-24.302688
0
LINE
8
0
10
-5.594453
20
-24.302688
11
-5.21073
21
-24.219543
0
LINE
8
0
10
-5.21073
20
-24.219543
11
-4.848527
21
-24.120143
0
LINE
8
0
10
-4.848527
20
-24.120143
11
-4.508101
21
-24.007317
0
LINE
8
0
10
-4.508101
20
-24.007317
11
-4.188753
21
-23.883661
0
LINE
8
0
10
-4.188753
20
-23.883661
11
-3.888659
21
-23.751325
0
LINE
8
0
10
-3.888659
20
-23.751325
11
-3.604617
21
-23.611764
0
LINE
8
0
10
-3.604617
20
-23.611764
11
-3.331664
21
-23.465465
0
LINE
8
0
10
-3.331664
20
-23.465465
11
-3.062468
21
-23.311685
0
LINE
8
0
10
-3.062468
20
-23.311685
11
-2.786371
21
-23.148355
0
LINE
8
0
10
-2.786371
20
-23.148355
11
-2.487986
21
-22.972513
0
LINE
8
0
10
-2.487986
20
-22.972513
11
-2.145613
21
-22.782192
0
LINE
8
0
10
-2.145613
20
-22.782192
11
-1.731138
21
-22.581411
0
LINE
8
0
10
-1.731138
20
-22.581411
11
-1.216652
21
-22.389327
0
LINE
8
0
10
-1.216652
20
-22.389327
11
-0.595882
21
-22.247319
0
LINE
8
0
10
-0.595882
20
-22.247319
11
0.086819
21
-22.20371
0
LINE
8
0
10
0.086819
20
-22.20371
11
0.744013
21
-22.272222
0
LINE
8
0
10
0.744013
20
-22.272222
11
1.304805
21
-22.417361
0
LINE
8
0
10
1.304805
20
-22.417361
11
1.753012
21
-22.590847
0
LINE
8
0
10
1.753012
20
-22.590847
11
2.109744
21
-22.763159
0
LINE
8
0
10
2.109744
20
-22.763159
11
2.404966
21
-22.924658
0
LINE
8
0
10
2.404966
20
-22.924658
11
2.664263
21
-23.075775
0
LINE
8
0
10
2.664263
20
-23.075775
11
2.906531
21
-23.219852
0
LINE
8
0
10
2.906531
20
-23.219852
11
3.145183
21
-23.359936
0
LINE
8
0
10
3.145183
20
-23.359936
11
3.38971
21
-23.497767
0
LINE
8
0
10
3.38971
20
-23.497767
11
3.646851
21
-23.633679
0
LINE
8
0
10
3.646851
20
-23.633679
11
3.921338
21
-23.766802
0
LINE
8
0
10
3.921338
20
-23.766802
11
4.21637
21
-23.895332
0
LINE
8
0
10
4.21637
20
-23.895332
11
4.533903
21
-24.016796
0
LINE
8
0
10
4.533903
20
-24.016796
11
4.874843
21
-24.128287
0
LINE
8
0
10
4.874843
20
-24.128287
11
5.23918
21
-24.226662
0
LINE
8
0
10
5.23918
20
-24.226662
11
5.626092
21
-24.308715
0
LINE
8
0
10
5.626092
20
-24.308715
11
6.034036
21
-24.371323
0
LINE
8
0
10
6.034036
20
-24.371323
11
6.460835
21
-24.411572
0
LINE
8
0
10
6.460835
20
-24.411572
11
6.90376
21
-24.426864
0
LINE
8
0
10
6.90376
20
-24.426864
11
7.359622
21
-24.415003
0
LINE
8
0
10
7.359622
20
-24.415003
11
7.824861
21
-24.374268
0
LINE
8
0
10
7.824861
20
-24.374268
11
8.295642
21
-24.303467
0
LINE
8
0
10
8.295642
20
-24.303467
11
8.767951
21
-24.201973
0
LINE
8
0
10
8.767951
20
-24.201973
11
9.237695
21
-24.069744
0
LINE
8
0
10
9.237695
20
-24.069744
11
9.700797
21
-23.90733
0
LINE
8
0
10
9.700797
20
-23.90733
11
10.153295
21
-23.715861
0
LINE
8
0
10
10.153295
20
-23.715861
11
10.591434
21
-23.497019
0
LINE
8
0
10
10.591434
20
-23.497019
11
11.011748
21
-23.252994
0
LINE
8
0
10
11.011748
20
-23.252994
11
11.411144
21
-22.986435
0
LINE
8
0
10
11.411144
20
-22.986435
11
11.786968
21
-22.700371
0
LINE
8
0
10
11.786968
20
-22.700371
11
12.137065
21
-22.398137
0
LINE
8
0
10
12.137065
20
-22.398137
11
12.459827
21
-22.083271
0
LINE
8
0
10
12.459827
20
-22.083271
11
12.754222
21
-21.759416
0
LINE
8
0
10
12.754222
20
-21.759416
11
13.019821
21
-21.430197
0
LINE
8
0
10
13.019821
20
-21.430197
11
13.256797
21
-21.099093
0
LINE
8
0
10
13.256797
20
-21.099093
11
13.465918
21
-20.76929
0
LINE
8
0
10
13.465918
20
-20.76929
11
13.648526
21
-20.443521
0
LINE
8
0
10
13.648526
20
-20.443521
11
13.806506
21
-20.123876
0
LINE
8
0
10
13.806506
20
-20.123876
11
13.942248
21
-19.811573
0
LINE
8
0
10
13.942248
20
-19.811573
11
14.058623
21
-19.506681
0
LINE
8
0
10
14.058623
20
-19.506681
11
14.158987
21
-19.207752
0
LINE
8
0
10
14.158987
20
-19.207752
11
14.247276
21
-18.911339
0
LINE
8
0
10
14.247276
20
-18.911339
11
14.328282
21
-18.611364
0
LINE
8
0
10
14.328282
20
-18.611364
11
14.408327
21
-18.298361
0
LINE
8
0
10
14.408327
20
-18.298361
11
14.496681
21
-17.95884
0
LINE
8
0
10
14.496681
20
-17.95884
11
14.608183
21
-17.575731
0
LINE
8
0
10
14.608183
20
-17.575731
11
14.766889
21
-17.132528
0
LINE
8
0
10
14.766889
20
-17.132528
11
15.007093
21
-16.625715
0
LINE
8
0
10
15.007093
20
-16.625715
11
15.360706
21
-16.085315
0
LINE
8
0
10
15.360706
20
-16.085315
11
15.824155
21
-15.580547
0
LINE
8
0
10
15.824155
20
-15.580547
11
16.339461
21
-15.179449
0
LINE
8
0
10
16.339461
20
-15.179449
11
16.832754
21
-14.899843
0
LINE
8
0
10
16.832754
20
-14.899843
11
17.263864
21
-14.715465
0
LINE
8
0
10
17.263864
20
-14.715465
11
17.630582
21
-14.590842
0
LINE
8
0
10
17.630582
20
-14.590842
11
17.948455
21
-14.499339
0
LINE
8
0
10
17.948455
20
-14.499339
11
18.235757
21
-14.424229
0
LINE
8
0
10
18.235757
20
-14.424229
11
18.507717
21
-14.355114
0
LINE
8
0
10
18.507717
20
-14.355114
11
18.775477
21
-14.284972
0
LINE
8
0
10
18.775477
20
-14.284972
11
19.04657
21
-14.208476
0
LINE
8
0
10
19.04657
20
-14.208476
11
19.325678
21
-14.121182
0
LINE
8
0
10
19.325678
20
-14.121182
11
19.615289
21
-14.019186
0
LINE
8
0
10
19.615289
20
-14.019186
11
19.9162
21
-13.899
0
LINE
8
0
10
19.9162
20
-13.899
11
20.227902
21
-13.757546
0
LINE
8
0
10
20.227902
20
-13.757546
11
20.548864
21
-13.592184
0
LINE
8
0
10
20.548864
20
-13.592184
11
20.87677
21
-13.400764
0
LINE
8
0
10
20.87677
20
-13.400764
11
21.208707
21
-13.181667
0
LINE
8
0
10
21.208707
20
-13.181667
11
21.541329
21
-12.933851
0
LINE
8
0
10
21.541329
20
-12.933851
11
21.871009
21
-12.65687
0
LINE
8
0
10
21.871009
20
-12.65687
11
22.193968
21
-12.350893
0
LINE
8
0
10
22.193968
20
-12.350893
11
22.506403
21
-12.016699
0
LINE
8
0
10
22.506403
20
-12.016699
11
22.804595
21
-11.655661
0
LINE
8
0
10
22.804595
20
-11.655661
11
23.085019
21
-11.269716
0
LINE
8
0
10
23.085019
20
-11.269716
11
23.344433
21
-10.86132
0
LINE
8
0
10
23.344433
20
-10.86132
11
23.579963
21
-10.433394
0
LINE
8
0
10
23.579963
20
-10.433394
11
23.789176
21
-9.989254
0
LINE
8
0
10
23.789176
20
-9.989254
11
23.970131
21
-9.532535
0
LINE
8
0
10
23.970131
20
-9.532535
11
24.121433
21
-9.067108
0
LINE
8
0
10
24.121433
20
-9.067108
11
24.242253
21
-8.596985
0
LINE
8
0
10
24.242253
20
-8.596985
11
24.332349
21
-8.126225
0
LINE
8
0
10
24.332349
20
-8.126225
11
24.392059
21
-7.658836
0
LINE
8
0
10
24.392059
20
-7.658836
11
24.422285
21
-7.198674
0
LINE
8
0
10
24.422285
20
-7.198674
11
24.424456
21
-6.749344
0
LINE
8
0
10
24.424456
20
-6.749344
11
24.400475
21
-6.314099
0
LINE
8
0
10
24.400475
20
-6.314099
11
24.352646
21
-5.895746
0
LINE
8
0
10
24.352646
20
-5.895746
11
24.283584
21
-5.496551
0
LINE
8
0
10
24.283584
20
-5.496551
11
24.196104
21
-5.118137
0
LINE
8
0
10
24.196104
20
-5.118137
11
24.093088
21
-4.761389
0
LINE
8
0
10
24.093088
20
-4.761389
11
23.977325
21
-4.426338
0
LINE
8
0
10
23.977325
20
-4.426338
11
23.85132
21
-4.112024
0
LINE
8
0
10
23.85132
20
-4.112024
11
23.717074
21
-3.816304
0
LINE
8
0
10
23.717074
20
-3.816304
11
23.575827
21
-3.535579
0
LINE
8
0
10
23.575827
20
-3.535579
11
23.42778
21
-3.264363
0
LINE
8
0
10
23.42778
20
-3.264363
11
23.271855
21
-2.994598
0
LINE
8
0
10
23.271855
20
-2.994598
11
23.105685
21
-2.714593
0
LINE
8
0
10
23.105685
20
-2.714593
11
22.926292
21
-2.407519
0
LINE
8
0
10
22.926292
20
-2.407519
11
22.732572
21
-2.049948
0
LINE
8
0
10
22.732572
20
-2.049948
11
22.531342
21
-1.612747
0
LINE
8
0
10
22.531342
20
-1.612747
11
22.347091
21
-1.070725
0
LINE
8
0
10
22.347091
20
-1.070725
11
22.225735
21
-0.427989
0
LINE
8
0
10
22.225735
20
-0.427989
11
22.211035
21
0.257082
0
ENDSEC
0
EOF
